<?xml version="1.0" encoding="UTF-8" standalone="no"?>
<!-- Created with Inkscape (http://www.inkscape.org/) -->

<svg
   width="32"
   height="32"
   viewBox="0 0 8.4666645 8.4666667"
   version="1.1"
   id="svg5"
   inkscape:version="1.2.2 (b0a8486541, 2022-12-01)"
   sodipodi:docname="kahulugan.svg"
   xml:space="preserve"
   xmlns:inkscape="http://www.inkscape.org/namespaces/inkscape"
   xmlns:sodipodi="http://sodipodi.sourceforge.net/DTD/sodipodi-0.dtd"
   xmlns="http://www.w3.org/2000/svg"
   xmlns:svg="http://www.w3.org/2000/svg"><sodipodi:namedview
     id="namedview7"
     pagecolor="#ffffff"
     bordercolor="#000000"
     borderopacity="0.25"
     inkscape:showpageshadow="2"
     inkscape:pageopacity="0.0"
     inkscape:pagecheckerboard="0"
     inkscape:deskcolor="#d1d1d1"
     inkscape:document-units="mm"
     showgrid="false"
     inkscape:zoom="11.313708"
     inkscape:cx="18.296388"
     inkscape:cy="22.892582"
     inkscape:window-width="1920"
     inkscape:window-height="1057"
     inkscape:window-x="1920"
     inkscape:window-y="0"
     inkscape:window-maximized="1"
     inkscape:current-layer="layer1" /><defs
     id="defs2"><inkscape:path-effect
       effect="mirror_symmetry"
       start_point="16.020868,17.238084"
       end_point="16.020868,19.180776"
       center_point="16.020868,18.20943"
       id="path-effect643"
       is_visible="true"
       lpeversion="1.2"
       lpesatellites=""
       mode="free"
       discard_orig_path="false"
       fuse_paths="true"
       oposite_fuse="false"
       split_items="false"
       split_open="false"
       link_styles="false" /><inkscape:path-effect
       effect="mirror_symmetry"
       start_point="21.004687,16.139133"
       end_point="21.004687,18.284387"
       center_point="21.004687,17.21176"
       id="path-effect639"
       is_visible="true"
       lpeversion="1.2"
       lpesatellites=""
       mode="free"
       discard_orig_path="false"
       fuse_paths="true"
       oposite_fuse="true"
       split_items="false"
       split_open="false"
       link_styles="false" /><inkscape:path-effect
       effect="mirror_symmetry"
       start_point="31.564284,2.931446"
       end_point="31.564284,15.362714"
       center_point="31.564284,9.14708"
       id="path-effect561"
       is_visible="true"
       lpeversion="1.2"
       lpesatellites=""
       mode="free"
       discard_orig_path="false"
       fuse_paths="false"
       oposite_fuse="false"
       split_items="false"
       split_open="false"
       link_styles="false" /></defs><g
     inkscape:label="Layer 1"
     inkscape:groupmode="layer"
     id="layer1"><g
       aria-label="    ᜑ "
       id="text376"
       style="font-size:3.175px;stroke-width:0.264583"
       transform="matrix(1.1560647,-0.24879564,0.24879564,1.1560647,2.6461843,1.6738968)" /><g
       aria-label="ᜃ"
       id="text380"
       style="font-size:3.175px;stroke-width:0.264583"
       transform="matrix(1.2430414,0,0,1.2430414,3.8593482,5.5665015)" /><g
       aria-label="ᜈ"
       id="text384"
       style="font-size:3.175px;stroke-width:0.264583"
       transform="matrix(1.2201137,0,0,1.2201137,4.3143829,-1.7060869)" /><g
       aria-label="ᜇ"
       id="text388"
       style="font-size:3.175px;stroke-width:0.264583"
       transform="matrix(0.6790723,0,0,0.6790723,13.159326,3.1713655)" /><path
       id="path7796"
       style="fill:#ececec;fill-opacity:1;stroke-width:0.197185"
       d="M 0.7324782,0.38017509 0.71360551,7.5489433 H 7.2114823 V 0.41214083 Z M 0.98281066,0.60508966 1.8397202,0.62319101 1.1784561,0.96903566 0.97202734,1.5840847 Z M 7.0150671,0.67903451 7.0254609,1.6580294 6.8194224,1.0429801 6.1577729,0.6971354 Z M 4.6835037,0.85850319 c 0.1098103,0 0.2075734,0.0126296 0.2938525,0.0381279 0.086279,0.0235315 0.1747679,0.0595841 0.2649677,0.10860461 l -0.091274,0.179469 C 5.0726146,1.1435257 4.9982657,1.1123029 4.9276745,1.0907343 4.8590438,1.0691636 4.7813353,1.0583826 4.6950578,1.0583826 c -0.049016,0 -0.1066356,0.00892 -0.1733084,0.026573 -0.06667,0.015692 -0.1168644,0.031299 -0.1501997,0.046985 l -0.2969334,0.126326 v 0.8295653 l 0.2175966,-0.091275 c 0.045104,-0.019604 0.1049588,-0.039317 0.1794688,-0.058925 0.076474,-0.021571 0.1471105,-0.032351 0.2118206,-0.032351 0.1098104,0 0.2075735,0.013031 0.2938525,0.038512 0.086279,0.023532 0.1747681,0.059584 0.2649679,0.1086046 l -0.091275,0.179469 C 5.0726132,2.1906898 4.9982644,2.1594647 4.9276732,2.1378962 4.8590424,2.1163254 4.7813339,2.1055445 4.6950564,2.1055445 c -0.049016,0 -0.1066356,0.00853 -0.1733083,0.026189 -0.06667,0.015692 -0.1168645,0.031684 -0.1501996,0.04737 l -0.7733349,0.323511 c -0.045104,0.019604 -0.1001291,0.037075 -0.1648343,0.052762 -0.062752,0.013724 -0.1266997,0.020789 -0.1914098,0.020789 -0.1274576,0 -0.2360032,-0.022682 -0.3262037,-0.067784 -0.088234,-0.0451 -0.1774637,-0.1056927 -0.2676635,-0.182165 L 2.7775046,2.1702412 c 0.06667,0.062747 0.1361864,0.1125589 0.2087402,0.1498152 0.072552,0.037256 0.1599211,0.055845 0.2618869,0.055845 0.049023,0 0.098101,-0.00557 0.1471194,-0.017324 0.049016,-0.011758 0.089902,-0.024787 0.1232418,-0.038512 L 3.8481617,2.1818034 V 1.3526228 L 3.5982136,1.455452 C 3.5531096,1.475056 3.4980845,1.492527 3.4333793,1.508214 3.3706273,1.521938 3.3066796,1.529003 3.2419695,1.529003 3.1145119,1.529003 3.0059663,1.506321 2.9157658,1.461219 2.8275314,1.4161191 2.7383021,1.3555265 2.6481023,1.2790541 L 2.7775046,1.1230785 c 0.06667,0.062747 0.1361864,0.1125589 0.2087402,0.1498151 0.072552,0.037256 0.1599211,0.055845 0.2618869,0.055845 0.049023,0 0.098101,-0.00557 0.1471194,-0.017324 0.049016,-0.011758 0.089902,-0.024787 0.1232418,-0.038512 L 4.2922136,0.94939429 c 0.045104,-0.0196038 0.1049588,-0.0389305 0.1794688,-0.0585378 0.076475,-0.0215706 0.1471105,-0.0323489 0.2118213,-0.0323533 z m -0.0081,1.54898371 c 0.054629,-4.898e-4 0.1074787,0.00407 0.1586737,0.013098 0.1166186,0.018777 0.2392763,0.057027 0.3681817,0.1151528 l -0.083183,0.172537 c -0.07221,-0.034071 -0.141502,-0.06013 -0.2083536,-0.07818 -0.066852,-0.018039 -0.1358043,-0.028145 -0.2068135,-0.03004 -0.071009,-0.00189 -0.1522181,0.00695 -0.2434006,0.026573 -0.083889,0.018061 -0.1667499,0.049601 -0.2487928,0.09397 -0.082429,0.042549 -0.1569593,0.082199 -0.2233749,0.1193904 -0.08308,0.04841 -0.1825669,0.1005064 -0.2984738,0.1559757 -0.1144748,0.053261 -0.23203,0.092716 -0.3523923,0.1186191 -0.133124,0.02865 -0.2577211,0.03342 -0.3743444,0.014641 C 2.8479463,3.108213 2.7257783,3.0687262 2.5968785,3.0106057 l 0.070859,-0.1756196 c 0.083936,0.035363 0.1595992,0.063313 0.22684,0.083187 0.067244,0.019872 0.1327129,0.030329 0.1960304,0.031966 0.065144,0.00125 0.1359965,-0.00624 0.2125917,-0.022724 0.1130671,-0.024334 0.2202589,-0.061942 0.3219669,-0.1124562 0.1035325,-0.050905 0.1929165,-0.097392 0.2676643,-0.1401876 0.076566,-0.043193 0.1620737,-0.088449 0.2568795,-0.135565 0.094809,-0.047119 0.1971413,-0.082363 0.3065623,-0.1059092 0.075909,-0.01634 0.1489032,-0.025178 0.2191368,-0.025804 z M 3.9579212,3.1099612 c 0.1251061,0 0.2473133,0.025058 0.3666411,0.0751 0.1212568,0.050041 0.230357,0.1252156 0.3265882,0.2252997 0.098161,0.1000841 0.1760354,0.2249912 0.2337726,0.3751142 0.059667,0.1501281 0.08935,0.3255301 0.08935,0.5256999 0,0.09623 -0.00655,0.1999355 -0.020029,0.3115683 -0.013457,0.1116339 -0.03853,0.2176457 -0.0751,0.3177306 H 4.6480749 c 0.026949,-0.080838 0.046988,-0.1529268 0.060463,-0.216441 0.015401,-0.065442 0.026196,-0.1309737 0.031964,-0.1964147 0.00574,-0.065442 0.00848,-0.13869 0.00848,-0.2195212 0,-0.175148 -0.029685,-0.3359061 -0.08935,-0.4821799 C 4.5999674,3.6777111 4.5143787,3.5574348 4.4027464,3.4650484 4.293038,3.3707414 4.1611925,3.3186957 4.0072203,3.3090719 v 0.017324 c 0,0.063516 0.015423,0.1117031 0.046215,0.1444236 0.032725,0.030796 0.05971,0.056621 0.080879,0.077795 0.019246,0.019246 0.040453,0.039677 0.06355,0.06085 0.023095,0.021169 0.034663,0.050086 0.034663,0.086654 0,0.030796 -0.013502,0.062408 -0.040439,0.095126 -0.025018,0.030793 -0.080145,0.070502 -0.1648342,0.1186191 -0.028872,0.015401 -0.043137,0.025809 -0.043137,0.031576 0,0.0038 0.00771,0.00959 0.023111,0.017324 0.015401,0.00574 0.032747,0.013457 0.051989,0.023111 0.051967,0.019246 0.1001579,0.042376 0.1444214,0.069327 0.046192,0.025026 0.068937,0.061648 0.068937,0.1097607 0,0.04234 -0.022746,0.079737 -0.068937,0.1124561 -0.044268,0.032725 -0.086676,0.062401 -0.1270911,0.08935 -0.023095,0.013478 -0.044299,0.026196 -0.06355,0.037741 -0.019246,0.011537 -0.028887,0.019269 -0.028887,0.023111 0,0.0038 0.00848,0.00845 0.025802,0.014238 0.017324,0.00574 0.035825,0.013457 0.055076,0.023111 0.051967,0.023095 0.099002,0.047377 0.1413433,0.072402 0.044268,0.025027 0.06624,0.060494 0.06624,0.1066806 0,0.044268 -0.015021,0.083587 -0.045826,0.1182347 -0.030793,0.034647 -0.070502,0.068572 -0.1186192,0.1012885 -0.038494,0.026949 -0.078972,0.060485 -0.1213148,0.1009041 -0.042285,0.042285 -0.083646,0.099152 -0.1240108,0.1702258 L 3.6779385,5.0328831 c 0.046192,-0.088537 0.095537,-0.1560003 0.1475039,-0.2021907 0.053891,-0.04619 0.098995,-0.082045 0.1355651,-0.1070652 0.021169,-0.015401 0.033894,-0.026576 0.037741,-0.034274 0.00574,-0.00769 0.00848,-0.014641 0.00848,-0.020409 0,-0.015401 -0.017346,-0.02966 -0.051991,-0.043135 -0.032725,-0.013456 -0.065495,-0.026965 -0.098209,-0.040439 -0.030793,-0.013478 -0.056618,-0.03198 -0.077795,-0.055075 -0.019246,-0.025018 -0.028887,-0.059712 -0.028887,-0.1039841 0,-0.038492 0.011557,-0.070108 0.034663,-0.095126 0.023095,-0.026949 0.048151,-0.04892 0.0751,-0.06624 0.028872,-0.017324 0.04892,-0.028887 0.060463,-0.034663 0.021169,-0.01348 0.040453,-0.024267 0.057765,-0.031966 0.019246,-0.00769 0.028887,-0.014261 0.028887,-0.020029 0,-0.00963 -0.017346,-0.021191 -0.051991,-0.034663 -0.051967,-0.021169 -0.099002,-0.04353 -0.1413411,-0.066628 -0.042346,-0.023095 -0.06355,-0.067433 -0.06355,-0.1328693 0,-0.048122 0.017346,-0.085514 0.051988,-0.1124561 0.03657,-0.028872 0.075893,-0.056625 0.1182346,-0.083574 0.019246,-0.011557 0.038524,-0.022354 0.057765,-0.031966 0.019246,-0.00961 0.028887,-0.017324 0.028887,-0.023109 0,-0.00389 -0.00186,-0.00774 -0.00574,-0.011557 -0.00194,-0.00382 -0.00965,-0.00961 -0.023111,-0.017324 C 3.93793,3.6371981 3.899382,3.5978767 3.8628146,3.5459102 3.8281672,3.492019 3.8108256,3.4207013 3.8108256,3.332165 V 3.323685 C 3.674172,3.354481 3.55775,3.416931 3.461514,3.5112412 c -0.09623,0.09431 -0.1694792,0.2107364 -0.2195233,0.3493109 -0.050044,0.1366536 -0.0751,0.2858435 -0.0751,0.4475189 0,0.080834 0.00313,0.1540824 0.00885,0.2195212 0.00574,0.065442 0.016161,0.1309759 0.031576,0.1964147 0.015401,0.063512 0.035825,0.1356053 0.060852,0.216441 H 3.0370842 c -0.036563,-0.1000758 -0.061625,-0.20609 -0.0751,-0.3177227 -0.011534,-0.1116337 -0.017324,-0.2153367 -0.017324,-0.311568 0,-0.2001701 0.028915,-0.3755723 0.086654,-0.5256999 C 3.0890581,3.6353337 3.1669268,3.5104281 3.2650874,3.4103431 3.3632463,3.310259 3.4719591,3.2350855 3.5912906,3.1850434 c 0.1212568,-0.050043 0.2434601,-0.0751 0.3666417,-0.0751 z m 0.5753846,2.1363032 c 0.1349995,0 0.2563073,0.022085 0.3639455,0.065859 0.1076392,0.041965 0.2172277,0.103924 0.328514,0.1860162 L 5.1106108,5.6456434 C 5.0485831,5.5982078 4.987492,5.5591948 4.9272905,5.5281799 4.8670868,5.4971693 4.8033826,5.4733499 4.7358806,5.4569315 c -0.0675,-0.016407 -0.1467908,-0.024647 -0.2380092,-0.024647 -0.083921,0 -0.1696961,0.012965 -0.2572649,0.038517 -0.087571,0.023721 -0.1668595,0.04628 -0.2380095,0.068171 -0.089395,0.02919 -0.1954983,0.058623 -0.3177299,0.08781 -0.1204075,0.027367 -0.2408407,0.040826 -0.3612499,0.040826 -0.038314,0 -0.075589,-0.00171 -0.1120716,-0.00537 -0.07662,0.054731 -0.1368392,0.1231769 -0.1806245,0.2052732 -0.043786,0.082096 -0.065473,0.1722288 -0.065473,0.2707455 0,0.087566 0.0273,0.1577573 0.082031,0.2106649 0.054731,0.051081 0.1366336,0.07664 0.2460962,0.07664 0.1076392,0 0.2116126,-0.00997 0.3119534,-0.030043 0.1003404,-0.020073 0.211673,-0.048234 0.333906,-0.084728 0.091218,-0.027367 0.1852203,-0.05292 0.2819139,-0.07664 0.098512,-0.025541 0.2024904,-0.038128 0.3119534,-0.038128 0.1349996,0 0.2563073,0.021683 0.3639455,0.065473 0.1076392,0.041965 0.2172278,0.103924 0.328514,0.186016 L 5.1106079,6.5954055 C 5.0485802,6.5479699 4.9874891,6.5085703 4.9272876,6.4775576 4.8670839,6.4465403 4.8033797,6.4231075 4.7358778,6.4066892 4.668378,6.390282 4.5890869,6.3820426 4.4978685,6.3820426 c -0.083921,0 -0.1679526,0.011713 -0.2518738,0.03543 -0.083918,0.023721 -0.1649528,0.046662 -0.2434007,0.06855 -0.098512,0.027367 -0.2081054,0.055536 -0.3285139,0.084728 -0.1185812,0.027367 -0.2463736,0.041206 -0.3832018,0.041206 -0.162371,0 -0.2927731,-0.042892 -0.39129,-0.1286334 -0.096691,-0.085743 -0.1448081,-0.1988207 -0.1448081,-0.3392981 0,-0.1039887 0.021683,-0.2009927 0.065473,-0.290386 C 2.8640378,5.7624204 2.9233809,5.6831316 2.9981812,5.6156296 2.9361513,5.5937236 2.8750646,5.5664348 2.8148587,5.5335981 2.7564812,5.5007613 2.6971336,5.4617395 2.63693,5.4161346 l 0.1039841,-0.15328 c 0.072976,0.051081 0.139678,0.092711 0.1998817,0.125551 0.060204,0.032836 0.1204208,0.056656 0.1806245,0.071248 0.062028,0.014596 0.1313447,0.02195 0.2079691,0.02195 0.1131109,0 0.2231871,-0.013836 0.3308253,-0.041206 0.1094632,-0.027367 0.2043372,-0.053792 0.28461,-0.079338 0.082096,-0.025541 0.1734848,-0.051095 0.2738254,-0.07664 0.1003416,-0.025541 0.2051861,-0.038128 0.3146497,-0.038128 z M 0.92889464,6.3692971 1.134938,6.9843463 1.7962029,7.3298054 0.93929339,7.3479079 Z M 6.9942721,6.3754871 6.9838784,7.354482 6.1265842,7.336376 6.7882314,6.9905287 Z" /><path
       style="fill:#ececec;fill-opacity:1;stroke-width:0.198913"
       d="M 7.5905083,0.79363303 7.8988457,1.1897696 7.8978769,8.1698734 1.1189584,8.1972991 0.93794866,7.9245131 7.5250859,7.9363112 Z"
       id="path7865"
       sodipodi:nodetypes="ccccccc" /></g></svg>
